<svg width="34" height="34" viewBox="0 0 34 34" fill="none" xmlns="http://www.w3.org/2000/svg">
<path fill-rule="evenodd" clip-rule="evenodd" d="M27.6246 13.5441C27.672 19.4119 22.7821 24.839 16.9143 24.7917C11.0464 24.7443 6.4227 19.2404 6.37535 13.3726C6.328 7.50477 11.0464 2.78634 16.9143 2.83369C22.7821 2.88104 27.5773 7.67624 27.6246 13.5441ZM17.7169 7.43753C17.1301 7.4328 16.6506 7.90464 16.6459 8.49143C16.6411 9.07821 17.113 9.55773 17.6998 9.56247C19.4481 9.57657 20.8818 11.0103 20.8959 12.7586C20.9006 13.3454 21.3801 13.8172 21.9669 13.8125C22.5537 13.8077 23.0255 13.3282 23.0208 12.7414C22.9973 9.83291 20.6254 7.461 17.7169 7.43753Z" fill="#CE7D63"/>
<path d="M20.07 25.8037C20.5406 27.3087 19.5653 28.8237 18.0627 29.129V31.1664C18.0627 31.7532 17.587 32.2289 17.0002 32.2289C16.4134 32.2289 15.9377 31.7532 15.9377 31.1664V29.129C14.435 28.8237 13.4597 27.3087 13.9304 25.8037L13.9401 25.7735C14.8812 26.0479 15.8728 26.1997 16.903 26.2081C17.9952 26.2169 19.0533 26.0628 20.0594 25.7705C20.0631 25.7816 20.0665 25.7927 20.07 25.8037Z" fill="#CE7D63"/>
</svg>
