<svg width="29" height="28" viewBox="0 0 29 28" fill="none" xmlns="http://www.w3.org/2000/svg">
<path d="M11.6405 13.3105C11.6405 13.3105 14.0815 13.1251 14.0815 10.2042C14.0815 7.28584 12.426 5.84721 9.89547 5.84721L1.22656 5.8335V21.9617H10.0971C10.0971 21.9617 14.5323 22.102 14.5323 17.1232C14.5323 17.1232 14.8581 13.3105 11.6405 13.3105ZM4.4522 8.25273H8.88746C8.88746 8.25273 10.4051 8.27772 10.4051 10.2454C10.4051 12.2848 8.88746 12.2848 8.88746 12.2848H4.4522V8.25273ZM9.29066 19.5425H4.4522V14.704H9.29066C9.29066 14.704 11.7099 14.729 11.7099 17.1232C11.7099 19.5175 9.63903 19.5425 9.29066 19.5425Z" fill="#D48E77"/>
<path d="M21.387 9.86572C15.3285 9.86572 15.339 15.9138 15.339 15.9138C15.339 15.9138 14.9358 21.9619 21.387 21.9619C21.387 21.9619 27.0319 21.9619 27.0319 17.1234H23.8063C23.8063 17.1234 23.8063 19.5426 21.387 19.5426C21.387 19.5426 18.9678 19.5426 18.9678 16.317C18.9678 16.317 25.4191 16.317 27.0319 16.317C27.0319 14.7042 27.0319 9.86572 21.387 9.86572ZM18.9678 14.7042C18.9678 14.7042 18.9146 12.285 21.387 12.285C23.8587 12.285 23.8063 14.7042 23.8063 14.7042H18.9678Z" fill="#D48E77"/>
<path d="M24.6129 7.44629H18.1616V9.05911H24.6129V7.44629Z" fill="#D48E77"/>
</svg>
