<svg width="27" height="26" viewBox="0 0 27 26" fill="none" xmlns="http://www.w3.org/2000/svg">
<path d="M13.2605 1.01953C19.8855 1.01953 25.2457 6.37972 25.2457 12.9946C25.2457 19.6096 19.8855 24.9798 13.2605 24.9798C6.63558 24.9798 1.27539 19.6196 1.27539 13.0047C1.27539 6.38976 6.63558 1.01953 13.2605 1.01953Z" fill="#E7BEB1"/>
<path d="M13.2615 25.8332C6.17479 25.8332 0.413086 20.0815 0.413086 13.0049C0.413086 5.91817 6.17479 0.166504 13.2615 0.166504C20.3482 0.166504 26.1099 5.91817 26.1099 12.9948C26.1099 20.0715 20.3482 25.8332 13.2615 25.8332ZM24.0923 14.7514C23.7209 14.631 20.6995 13.7376 17.2565 14.2797C18.6919 18.2145 19.2741 21.4266 19.3846 22.0891C21.8539 20.4328 23.6105 17.8029 24.0923 14.7514ZM17.5476 23.1029C17.387 22.1393 16.7446 18.7866 15.2088 14.7916C15.1887 14.8016 15.1586 14.8117 15.1386 14.8117C8.94523 16.9698 6.72687 21.256 6.52611 21.6575C8.38311 23.1029 10.7219 23.9662 13.2615 23.9662C14.7772 23.9762 16.2327 23.665 17.5476 23.1029ZM5.11078 20.3425C5.36173 19.9209 8.37307 14.9422 14.0344 13.1052C14.1749 13.0551 14.3255 13.0149 14.466 12.9748C14.195 12.3524 13.8939 11.7301 13.5727 11.1178C8.09201 12.7539 2.77197 12.6837 2.29016 12.6736C2.29016 12.784 2.28012 12.8945 2.28012 13.0049C2.29016 15.8255 3.35417 18.3952 5.11078 20.3425ZM2.52103 10.7664C3.01288 10.7765 7.5299 10.7965 12.6693 9.43141C10.8524 6.19923 8.885 3.48902 8.60394 3.09755C5.52233 4.54299 3.23371 7.37365 2.52103 10.7664ZM10.6918 2.35475C10.9929 2.75626 12.9905 5.46647 14.7872 8.76891C18.6919 7.30339 20.3381 5.09507 20.5389 4.81401C18.6016 3.09755 16.052 2.05361 13.2615 2.05361C12.3782 2.05361 11.5149 2.16403 10.6918 2.35475ZM21.7535 6.07878C21.5226 6.38995 19.6857 8.74883 15.6304 10.4051C15.8814 10.927 16.1323 11.459 16.3632 11.991C16.4435 12.1818 16.5238 12.3725 16.6041 12.5532C20.2578 12.0914 23.8815 12.8342 24.2429 12.9045C24.2127 10.3248 23.2893 7.94581 21.7535 6.07878Z" fill="#CE7D63"/>
</svg>
