<svg width="24" height="24" viewBox="0 0 24 24" fill="none" xmlns="http://www.w3.org/2000/svg">
<path d="M7.98519 12.0001C7.98519 9.85244 9.72681 8.11094 11.8758 8.11094C14.0248 8.11094 15.7673 9.85244 15.7673 12.0001C15.7673 14.1478 14.0248 15.8893 11.8758 15.8893C9.72681 15.8893 7.98519 14.1478 7.98519 12.0001ZM5.88151 12.0001C5.88151 15.3088 8.56514 17.9908 11.8758 17.9908C15.1864 17.9908 17.8701 15.3088 17.8701 12.0001C17.8701 8.69147 15.1864 6.00945 11.8758 6.00945C8.56514 6.00945 5.88151 8.69147 5.88151 12.0001ZM16.7065 5.77192C16.7064 6.04881 16.7885 6.31952 16.9423 6.54981C17.0961 6.7801 17.3148 6.95963 17.5708 7.06569C17.8267 7.17176 18.1083 7.1996 18.3801 7.14569C18.6519 7.09178 18.9015 6.95854 19.0975 6.76282C19.2935 6.56711 19.427 6.31771 19.4812 6.04616C19.5353 5.77461 19.5077 5.4931 19.4018 5.23724C19.2958 4.98138 19.1164 4.76266 18.8861 4.60874C18.6558 4.45481 18.385 4.3726 18.1079 4.37249H18.1074C17.736 4.37266 17.3799 4.52014 17.1172 4.78253C16.8545 5.04492 16.7068 5.40077 16.7065 5.77192ZM7.15963 21.4965C6.0215 21.4447 5.40289 21.2552 4.99179 21.0952C4.44677 20.8831 4.0579 20.6305 3.64905 20.2225C3.24019 19.8144 2.9871 19.4262 2.77586 18.8815C2.6156 18.4708 2.42602 17.8524 2.37428 16.7149C2.31769 15.4852 2.30639 15.1158 2.30639 12.0002C2.30639 8.88467 2.31862 8.51629 2.37428 7.2855C2.42612 6.14805 2.6171 5.53084 2.77586 5.11896C2.98804 4.57427 3.24075 4.18563 3.64905 3.77702C4.05734 3.36841 4.44584 3.11548 4.99179 2.90436C5.40271 2.7442 6.0215 2.55473 7.15963 2.50302C8.39013 2.44646 8.75976 2.43517 11.8758 2.43517C14.9918 2.43517 15.3618 2.4474 16.5933 2.50302C17.7315 2.55482 18.349 2.74569 18.7612 2.90436C19.3062 3.11548 19.6951 3.36897 20.1039 3.77702C20.5128 4.18507 20.7649 4.57427 20.9771 5.11896C21.1374 5.52963 21.3269 6.14805 21.3787 7.2855C21.4353 8.51629 21.4466 8.88467 21.4466 12.0002C21.4466 15.1158 21.4353 15.4842 21.3787 16.7149C21.3268 17.8524 21.1363 18.4706 20.9771 18.8815C20.7649 19.4262 20.5122 19.8148 20.1039 20.2225C19.6956 20.6302 19.3062 20.8831 18.7612 21.0952C18.3503 21.2553 17.7315 21.4448 16.5933 21.4965C15.3628 21.5531 14.9932 21.5643 11.8758 21.5643C8.75836 21.5643 8.38976 21.5531 7.15963 21.4965ZM7.06298 0.404149C5.82025 0.460709 4.97106 0.657642 4.22946 0.946041C3.46143 1.24387 2.81125 1.64343 2.16154 2.29172C1.51184 2.94001 1.11307 3.59082 0.815061 4.35839C0.526489 5.10002 0.329438 5.94823 0.272844 7.19021C0.215316 8.43415 0.202148 8.83185 0.202148 12.0001C0.202148 15.1684 0.215316 15.5661 0.272844 16.8101C0.329438 18.0521 0.526489 18.9002 0.815061 19.6419C1.11307 20.409 1.51193 21.0605 2.16154 21.7085C2.81116 22.3566 3.46143 22.7556 4.22946 23.0542C4.97246 23.3426 5.82025 23.5396 7.06298 23.5961C8.30832 23.6527 8.7056 23.6668 11.8758 23.6668C15.046 23.6668 15.4439 23.6536 16.6886 23.5961C17.9314 23.5396 18.78 23.3426 19.5221 23.0542C20.2897 22.7556 20.9403 22.3568 21.59 21.7085C22.2397 21.0603 22.6377 20.409 22.9365 19.6419C23.2251 18.9002 23.4231 18.052 23.4787 16.8101C23.5353 15.5652 23.5485 15.1684 23.5485 12.0001C23.5485 8.83185 23.5353 8.43415 23.4787 7.19021C23.4221 5.94813 23.2251 5.09955 22.9365 4.35839C22.6377 3.59129 22.2387 2.94104 21.59 2.29172C20.9413 1.6424 20.2897 1.24387 19.523 0.946041C18.78 0.657642 17.9313 0.459776 16.6895 0.404149C15.4448 0.347589 15.0469 0.333496 11.8767 0.333496C8.70653 0.333496 8.30832 0.346656 7.06298 0.404149Z" fill="#CE7D63"/>
<path d="M7.98519 12.0001C7.98519 9.85244 9.72681 8.11094 11.8758 8.11094C14.0248 8.11094 15.7673 9.85244 15.7673 12.0001C15.7673 14.1478 14.0248 15.8893 11.8758 15.8893C9.72681 15.8893 7.98519 14.1478 7.98519 12.0001ZM5.88151 12.0001C5.88151 15.3088 8.56514 17.9908 11.8758 17.9908C15.1864 17.9908 17.8701 15.3088 17.8701 12.0001C17.8701 8.69147 15.1864 6.00945 11.8758 6.00945C8.56514 6.00945 5.88151 8.69147 5.88151 12.0001ZM16.7065 5.77192C16.7064 6.04881 16.7885 6.31952 16.9423 6.54981C17.0961 6.7801 17.3148 6.95963 17.5708 7.06569C17.8267 7.17176 18.1083 7.1996 18.3801 7.14569C18.6519 7.09178 18.9015 6.95854 19.0975 6.76282C19.2935 6.56711 19.427 6.31771 19.4812 6.04616C19.5353 5.77461 19.5077 5.4931 19.4018 5.23724C19.2958 4.98138 19.1164 4.76266 18.8861 4.60874C18.6558 4.45481 18.385 4.3726 18.1079 4.37249H18.1074C17.736 4.37266 17.3799 4.52014 17.1172 4.78253C16.8545 5.04492 16.7068 5.40077 16.7065 5.77192ZM7.15963 21.4965C6.0215 21.4447 5.40289 21.2552 4.99179 21.0952C4.44677 20.8831 4.0579 20.6305 3.64905 20.2225C3.24019 19.8144 2.9871 19.4262 2.77586 18.8815C2.6156 18.4708 2.42602 17.8524 2.37428 16.7149C2.31769 15.4852 2.30639 15.1158 2.30639 12.0002C2.30639 8.88467 2.31862 8.51629 2.37428 7.2855C2.42612 6.14805 2.6171 5.53084 2.77586 5.11896C2.98804 4.57427 3.24075 4.18563 3.64905 3.77702C4.05734 3.36841 4.44584 3.11548 4.99179 2.90436C5.40271 2.7442 6.0215 2.55473 7.15963 2.50302C8.39013 2.44646 8.75976 2.43517 11.8758 2.43517C14.9918 2.43517 15.3618 2.4474 16.5933 2.50302C17.7315 2.55482 18.349 2.74569 18.7612 2.90436C19.3062 3.11548 19.6951 3.36897 20.1039 3.77702C20.5128 4.18507 20.7649 4.57427 20.9771 5.11896C21.1374 5.52963 21.3269 6.14805 21.3787 7.2855C21.4353 8.51629 21.4466 8.88467 21.4466 12.0002C21.4466 15.1158 21.4353 15.4842 21.3787 16.7149C21.3268 17.8524 21.1363 18.4706 20.9771 18.8815C20.7649 19.4262 20.5122 19.8148 20.1039 20.2225C19.6956 20.6302 19.3062 20.8831 18.7612 21.0952C18.3503 21.2553 17.7315 21.4448 16.5933 21.4965C15.3628 21.5531 14.9932 21.5643 11.8758 21.5643C8.75836 21.5643 8.38976 21.5531 7.15963 21.4965ZM7.06298 0.404149C5.82025 0.460709 4.97106 0.657642 4.22946 0.946041C3.46143 1.24387 2.81125 1.64343 2.16154 2.29172C1.51184 2.94001 1.11307 3.59082 0.815061 4.35839C0.526489 5.10002 0.329438 5.94823 0.272844 7.19021C0.215316 8.43415 0.202148 8.83185 0.202148 12.0001C0.202148 15.1684 0.215316 15.5661 0.272844 16.8101C0.329438 18.0521 0.526489 18.9002 0.815061 19.6419C1.11307 20.409 1.51193 21.0605 2.16154 21.7085C2.81116 22.3566 3.46143 22.7556 4.22946 23.0542C4.97246 23.3426 5.82025 23.5396 7.06298 23.5961C8.30832 23.6527 8.7056 23.6668 11.8758 23.6668C15.046 23.6668 15.4439 23.6536 16.6886 23.5961C17.9314 23.5396 18.78 23.3426 19.5221 23.0542C20.2897 22.7556 20.9403 22.3568 21.59 21.7085C22.2397 21.0603 22.6377 20.409 22.9365 19.6419C23.2251 18.9002 23.4231 18.052 23.4787 16.8101C23.5353 15.5652 23.5485 15.1684 23.5485 12.0001C23.5485 8.83185 23.5353 8.43415 23.4787 7.19021C23.4221 5.94813 23.2251 5.09955 22.9365 4.35839C22.6377 3.59129 22.2387 2.94104 21.59 2.29172C20.9413 1.6424 20.2897 1.24387 19.523 0.946041C18.78 0.657642 17.9313 0.459776 16.6895 0.404149C15.4448 0.347589 15.0469 0.333496 11.8767 0.333496C8.70653 0.333496 8.30832 0.346656 7.06298 0.404149Z" fill="#CE7D63"/>
</svg>
