<svg width="34" height="34" viewBox="0 0 34 34" fill="none" xmlns="http://www.w3.org/2000/svg">
<path d="M18.4671 5.17311L17.6553 5.65388C16.7636 6.18196 16.3177 6.446 15.8266 6.50752C15.3354 6.56903 14.8545 6.42106 13.8928 6.12512L13.0172 5.85568C9.63288 4.81425 7.9407 4.29353 6.92352 5.22451C5.90634 6.1555 6.23781 7.92163 6.90075 11.4539L7.07226 12.3677C7.26065 13.3715 7.35484 13.8734 7.24311 14.3637C7.13137 14.8539 6.82636 15.2772 6.21634 16.1236L5.66096 16.8941C3.51426 19.8727 2.44091 21.362 2.96456 22.5966C3.4882 23.8313 5.26204 23.9936 8.80973 24.3183L9.72758 24.4023C10.7357 24.4946 11.2398 24.5408 11.6619 24.7823C12.084 25.0238 12.3764 25.4333 12.9611 26.2523L13.4934 26.998C15.551 29.8803 16.5798 31.3214 17.9207 31.1535C19.2615 30.9856 20.0263 29.3198 21.556 25.9882L21.9517 25.1263C22.1738 24.6425 22.3392 24.2822 22.4976 24.0002L28.9987 30.5013C29.4137 30.9162 30.0864 30.9162 30.5013 30.5013C30.9163 30.0864 30.9163 29.4136 30.5013 28.9987L24.223 22.7204C24.3958 22.6575 24.5888 22.5899 24.806 22.5138L25.6904 22.2041C29.1088 21.0069 30.818 20.4083 31.123 19.0699C31.428 17.7314 30.1269 16.5396 27.5246 14.1558L26.8513 13.5391C26.1118 12.8617 25.7421 12.523 25.5502 12.0708C25.3584 11.6185 25.3662 11.1038 25.3819 10.0746L25.3961 9.13741C25.4512 5.51523 25.4787 3.70414 24.3264 3.04487C23.1741 2.3856 21.6051 3.31477 18.4671 5.17311Z" fill="#CE7D63"/>
</svg>
