<svg width="131" height="24" viewBox="0 0 131 24" fill="none" xmlns="http://www.w3.org/2000/svg">
<path d="M130.187 24H126.89V9.47285H117.701V24H114.421V6.17578H117.701V9.32222C117.724 8.88708 117.824 8.47983 118.002 8.10047C118.181 7.70995 118.415 7.37522 118.705 7.09628C119.007 6.80619 119.353 6.58303 119.743 6.42683C120.134 6.25946 120.552 6.17578 120.998 6.17578H126.89C127.347 6.17578 127.777 6.26504 128.178 6.44356C128.58 6.61093 128.926 6.84524 129.216 7.14649C129.517 7.43659 129.751 7.78248 129.919 8.18415C130.097 8.58582 130.187 9.01539 130.187 9.47285V24Z" fill="#F3DFD8"/>
<path d="M108.914 16.7699H97.1153V20.703H108.914V24H97.1153C96.669 24 96.245 23.9164 95.8433 23.749C95.4417 23.5705 95.0902 23.3362 94.7889 23.0461C94.4988 22.7448 94.2645 22.3934 94.086 21.9917C93.9186 21.59 93.835 21.1604 93.835 20.703V9.47285C93.835 9.01539 93.9186 8.58582 94.086 8.18415C94.2645 7.78248 94.4988 7.43659 94.7889 7.14649C95.0902 6.84524 95.4417 6.61093 95.8433 6.44356C96.245 6.26504 96.669 6.17578 97.1153 6.17578H105.617C106.075 6.17578 106.504 6.26504 106.906 6.44356C107.308 6.61093 107.654 6.84524 107.944 7.14649C108.245 7.43659 108.479 7.78248 108.647 8.18415C108.825 8.58582 108.914 9.01539 108.914 9.47285V16.7699ZM97.1153 9.47285V13.4729H105.617V9.47285H97.1153Z" fill="#F3DFD8"/>
<path d="M68.1279 3.43096C68.1279 2.96234 68.2172 2.52162 68.3957 2.10879C68.5742 1.6848 68.8197 1.32218 69.1321 1.02092C69.4445 0.708508 69.8071 0.46304 70.22 0.284519C70.644 0.0948396 71.0903 0 71.5589 0H84.5798C85.0484 0 85.4892 0.0948396 85.902 0.284519C86.326 0.46304 86.6942 0.708508 87.0066 1.02092C87.319 1.32218 87.5645 1.6848 87.743 2.10879C87.9215 2.52162 88.0108 2.96234 88.0108 3.43096V6.5272H84.5798V3.43096H71.5589V20.569H84.5798V14.7448H78.0694V11.3138H88.0108V20.569C88.0108 21.0377 87.9215 21.484 87.743 21.908C87.5645 22.3208 87.319 22.6834 87.0066 22.9958C86.6942 23.3082 86.326 23.5537 85.902 23.7322C85.4892 23.9107 85.0484 24 84.5798 24H71.5589C71.0903 24 70.644 23.9107 70.22 23.7322C69.8071 23.5537 69.4445 23.3082 69.1321 22.9958C68.8197 22.6834 68.5742 22.3208 68.3957 21.908C68.2172 21.484 68.1279 21.0377 68.1279 20.569V3.43096Z" fill="#F3DFD8"/>
<path d="M63.7093 6.17578L57.2323 14.8787L64.0106 24H60.0273L55.2407 17.5565L50.4374 24H46.4541L53.2491 14.8787L46.7721 6.17578H50.7386L55.2407 12.2009L59.7261 6.17578H63.7093Z" fill="#F3DFD8"/>
<path d="M42.6723 16.7699H30.8731V20.703H42.6723V24H30.8731C30.4268 24 30.0028 23.9164 29.6011 23.749C29.1995 23.5705 28.848 23.3362 28.5467 23.0461C28.2567 22.7448 28.0223 22.3934 27.8438 21.9917C27.6765 21.59 27.5928 21.1604 27.5928 20.703V9.47285C27.5928 9.01539 27.6765 8.58582 27.8438 8.18415C28.0223 7.78248 28.2567 7.43659 28.5467 7.14649C28.848 6.84524 29.1995 6.61093 29.6011 6.44356C30.0028 6.26504 30.4268 6.17578 30.8731 6.17578H39.3752C39.8327 6.17578 40.2622 6.26504 40.6639 6.44356C41.0656 6.61093 41.4115 6.84524 41.7016 7.14649C42.0028 7.43659 42.2371 7.78248 42.4045 8.18415C42.583 8.58582 42.6723 9.01539 42.6723 9.47285V16.7699ZM30.8731 9.47285V13.4729H39.3752V9.47285H30.8731Z" fill="#F3DFD8"/>
<path d="M3.91045 24H0.479492V0H3.91045L18.3372 18.6109V0H21.7682V24H18.3372L3.91045 5.38912V24Z" fill="#F3DFD8"/>
</svg>
