<svg width="20" height="21" viewBox="0 0 20 21" fill="none" xmlns="http://www.w3.org/2000/svg">
<path d="M15.8335 9.66658H10.8335V4.66659C10.8335 4.44557 10.7457 4.23361 10.5894 4.07733C10.4331 3.92105 10.2212 3.83325 10.0002 3.83325C9.77915 3.83325 9.56719 3.92105 9.41091 4.07733C9.25463 4.23361 9.16683 4.44557 9.16683 4.66659V9.66658H4.16683C3.94582 9.66658 3.73385 9.75438 3.57757 9.91066C3.42129 10.0669 3.3335 10.2789 3.3335 10.4999C3.3335 10.7209 3.42129 10.9329 3.57757 11.0892C3.73385 11.2455 3.94582 11.3333 4.16683 11.3333H9.16683V16.3333C9.16683 16.5543 9.25463 16.7662 9.41091 16.9225C9.56719 17.0788 9.77915 17.1666 10.0002 17.1666C10.2212 17.1666 10.4331 17.0788 10.5894 16.9225C10.7457 16.7662 10.8335 16.5543 10.8335 16.3333V11.3333H15.8335C16.0545 11.3333 16.2665 11.2455 16.4228 11.0892C16.579 10.9329 16.6668 10.7209 16.6668 10.4999C16.6668 10.2789 16.579 10.0669 16.4228 9.91066C16.2665 9.75438 16.0545 9.66658 15.8335 9.66658Z" fill="#E7BEB1"/>
</svg>
