<svg width="28" height="28" viewBox="0 0 28 28" fill="none" xmlns="http://www.w3.org/2000/svg">
<path fill-rule="evenodd" clip-rule="evenodd" d="M14.0594 1.45825H13.938C12.8898 1.45822 12.0157 1.45819 11.3218 1.55149C10.5894 1.64996 9.92812 1.86657 9.39673 2.39796C8.86535 2.92934 8.64874 3.5906 8.55026 4.32303C8.45697 5.01694 8.457 5.89102 8.45703 6.93923V7.02992C6.09899 7.10707 4.683 7.38262 3.69887 8.36675C2.33203 9.73359 2.33203 11.9335 2.33203 16.3333C2.33203 20.733 2.33203 22.9329 3.69887 24.2998C5.0657 25.6666 7.26559 25.6666 11.6654 25.6666H16.332C20.7318 25.6666 22.9317 25.6666 24.2985 24.2998C25.6654 22.9329 25.6654 20.733 25.6654 16.3333C25.6654 11.9335 25.6654 9.73359 24.2985 8.36675C23.3144 7.38262 21.8984 7.10707 19.5404 7.02992V6.93926C19.5404 5.89105 19.5404 5.01693 19.4471 4.32303C19.3487 3.5906 19.1321 2.92934 18.6007 2.39796C18.0693 1.86657 17.408 1.64996 16.6756 1.55149C15.9817 1.45819 15.1076 1.45822 14.0594 1.45825ZM17.7904 7.00212V6.99992C17.7904 5.87524 17.7885 5.11976 17.7127 4.55621C17.6404 4.01784 17.5153 3.78743 17.3632 3.63539C17.2112 3.48336 16.9808 3.35826 16.4424 3.28588C15.8789 3.21011 15.1234 3.20826 13.9987 3.20826C12.874 3.20826 12.1185 3.21011 11.555 3.28588C11.0166 3.35826 10.7862 3.48336 10.6342 3.63539C10.4821 3.78743 10.357 4.01784 10.2847 4.55621C10.2089 5.11976 10.207 5.87524 10.207 6.99992V7.00212C10.6644 6.99992 11.1498 6.99992 11.6654 6.99992H16.332C16.8476 6.99992 17.333 6.99992 17.7904 7.00212ZM19.832 10.4999C19.832 11.1443 19.3097 11.6666 18.6654 11.6666C18.021 11.6666 17.4987 11.1443 17.4987 10.4999C17.4987 9.85559 18.021 9.33325 18.6654 9.33325C19.3097 9.33325 19.832 9.85559 19.832 10.4999ZM9.33203 11.6666C9.97636 11.6666 10.4987 11.1443 10.4987 10.4999C10.4987 9.85559 9.97636 9.33325 9.33203 9.33325C8.6877 9.33325 8.16537 9.85559 8.16537 10.4999C8.16537 11.1443 8.6877 11.6666 9.33203 11.6666Z" fill="#CE7D63"/>
</svg>
