<svg width="27" height="22" viewBox="0 0 27 22" fill="none" xmlns="http://www.w3.org/2000/svg">
<path d="M26.249 3.02266C25.4249 3.3773 24.5586 3.62426 23.6714 3.75742C24.0862 3.68631 24.6965 2.9397 24.9394 2.6375C25.3085 2.18166 25.5898 1.66128 25.769 1.1028C25.769 1.06132 25.8105 1.00207 25.769 0.97244C25.7481 0.96103 25.7247 0.955051 25.7009 0.955051C25.6771 0.955051 25.6536 0.96103 25.6327 0.97244C24.6694 1.49413 23.6441 1.8923 22.5811 2.15754C22.544 2.16885 22.5046 2.16987 22.467 2.16048C22.4295 2.15108 22.3951 2.13163 22.3678 2.10421C22.285 2.00568 22.196 1.91265 22.1011 1.82571C21.6676 1.43726 21.1757 1.11934 20.6435 0.883558C19.925 0.588811 19.149 0.461162 18.374 0.510252C17.622 0.557744 16.8878 0.759441 16.2171 1.1028C15.5567 1.4648 14.9762 1.95659 14.5106 2.54862C14.0208 3.15797 13.6673 3.86513 13.4736 4.62254C13.314 5.34299 13.2959 6.08761 13.4203 6.81497C13.4203 6.9394 13.4203 6.95718 13.3136 6.9394C9.08877 6.31723 5.62236 4.81808 2.78998 1.60054C2.66555 1.45833 2.60037 1.45833 2.49963 1.60054C1.26713 3.47299 1.86561 6.43574 3.40623 7.89933C3.61363 8.09487 3.82694 8.28449 4.05211 8.46225C3.34574 8.41211 2.65663 8.22068 2.0256 7.89933C1.90709 7.8223 1.84191 7.86378 1.83598 8.00599C1.81918 8.20315 1.81918 8.40138 1.83598 8.59854C1.95962 9.54341 2.33199 10.4385 2.91501 11.1923C3.49803 11.946 4.27079 12.5314 5.15425 12.8886C5.36962 12.9808 5.59403 13.0503 5.82383 13.096C5.16991 13.2247 4.49923 13.2447 3.83879 13.1552C3.69658 13.1256 3.64325 13.2026 3.69658 13.3389C4.56763 15.7091 6.45786 16.432 7.84442 16.835C8.03404 16.8646 8.22365 16.8646 8.43697 16.912C8.43697 16.912 8.43697 16.912 8.40142 16.9475C7.99256 17.6942 6.33935 18.1978 5.58089 18.4585C4.1965 18.9558 2.72048 19.1459 1.25528 19.0155C1.02419 18.98 0.970859 18.9859 0.911605 19.0155C0.85235 19.0452 0.911605 19.1103 0.976785 19.1696C1.27306 19.3651 1.56933 19.537 1.87746 19.7029C2.79475 20.2032 3.76451 20.6007 4.76909 20.888C9.97167 22.322 15.826 21.2672 19.7309 17.386C22.8003 14.3403 23.8788 10.1392 23.8788 5.93207C23.8788 5.77208 24.0743 5.67727 24.1869 5.59432C24.9634 4.98926 25.6481 4.27471 26.2193 3.47299C26.3183 3.35349 26.369 3.20133 26.3616 3.04636V3.04636C26.3616 2.95748 26.3616 2.97525 26.249 3.02266Z" fill="#CE7D63"/>
</svg>
