<svg width="21" height="20" viewBox="0 0 21 20" fill="none" xmlns="http://www.w3.org/2000/svg">
<path fill-rule="evenodd" clip-rule="evenodd" d="M6.125 0.375001L19.25 0.375C19.4821 0.375 19.7046 0.467187 19.8687 0.631282C20.0328 0.795376 20.125 1.01794 20.125 1.25V14.375C20.125 14.8582 19.7332 15.25 19.25 15.25C18.7668 15.25 18.375 14.8582 18.375 14.375V3.36244L2.36872 19.3687C2.02701 19.7104 1.47299 19.7104 1.13128 19.3687C0.789573 19.027 0.789573 18.473 1.13128 18.1313L17.1376 2.125L6.125 2.125C5.64175 2.125 5.25 1.73325 5.25 1.25C5.25 0.766751 5.64175 0.375001 6.125 0.375001Z" fill="#E7BEB1"/>
</svg>
