<svg width="34" height="19" viewBox="0 0 34 19" fill="none" xmlns="http://www.w3.org/2000/svg">
<path d="M19 2.82322C19 2.47176 19.0669 2.14121 19.2008 1.83159C19.3347 1.5136 19.5188 1.24163 19.7531 1.01569C19.9874 0.781381 20.2594 0.59728 20.569 0.463389C20.887 0.32113 21.2218 0.25 21.5732 0.25H31.3389C31.6904 0.25 32.0209 0.32113 32.3305 0.463389C32.6485 0.59728 32.9247 0.781381 33.159 1.01569C33.3933 1.24163 33.5774 1.5136 33.7113 1.83159C33.8452 2.14121 33.9121 2.47176 33.9121 2.82322V5.1454H31.3389V2.82322H21.5732V15.6768H31.3389V11.3086H26.4561V8.73536H33.9121V15.6768C33.9121 16.0282 33.8452 16.363 33.7113 16.681C33.5774 16.9906 33.3933 17.2626 33.159 17.4969C32.9247 17.7312 32.6485 17.9153 32.3305 18.0492C32.0209 18.1831 31.6904 18.25 31.3389 18.25H21.5732C21.2218 18.25 20.887 18.1831 20.569 18.0492C20.2594 17.9153 19.9874 17.7312 19.7531 17.4969C19.5188 17.2626 19.3347 16.9906 19.2008 16.681C19.0669 16.363 19 16.0282 19 15.6768V2.82322Z" fill="#F3DFD8"/>
<path d="M2.57322 18H0V0H2.57322L13.3933 13.9582V0H15.9665V18H13.3933L2.57322 4.04184V18Z" fill="#F3DFD8"/>
</svg>
